HIERARCHY
ROOT Hips
{
	OFFSET 0.000000 0.000000 0.000000
	CHANNELS 6 Xposition Yposition Zposition Zrotation Yrotation Xrotation 
	JOINT LowerBack
	{
		OFFSET 0.000000 0.000000 0.000000
		CHANNELS 3 Zrotation Yrotation Xrotation
		JOINT Spine
		{
			OFFSET 0.028270 2.035590 -0.193380
			CHANNELS 3 Zrotation Yrotation Xrotation
			JOINT Spine1
			{
				OFFSET 0.056720 2.048850 -0.042750
				CHANNELS 3 Zrotation Yrotation Xrotation
				JOINT Neck
				{
					OFFSET 0.000000 0.000000 0.000000
					CHANNELS 3 Zrotation Yrotation Xrotation
					JOINT Neck1
					{
						OFFSET -0.054170 1.746240 0.172020
						CHANNELS 3 Zrotation Yrotation Xrotation
						JOINT Head
						{
							OFFSET 0.104070 1.761360 -0.123970
							CHANNELS 3 Zrotation Yrotation Xrotation
							End Site
							{
								OFFSET 0.000000 0.000000 0.000000
							}
						}
					}
				}
				JOINT LeftShoulder
				{
					OFFSET 0.000000 0.000000 0.000000
					CHANNELS 3 Zrotation Yrotation Xrotation
					JOINT LeftArm
					{
						OFFSET 3.362410 1.200890 -0.311210
						CHANNELS 3 Zrotation Yrotation Xrotation
						JOINT LeftForeArm
						{
							OFFSET 4.983000 -0.000000 -0.000000
							CHANNELS 3 Zrotation Yrotation Xrotation
							JOINT LeftHand
							{
								OFFSET 3.483560 -0.000000 -0.000000
								CHANNELS 3 Zrotation Yrotation Xrotation
								JOINT LeftFingerBase
								{
									OFFSET 0.000000 0.000000 0.000000
									CHANNELS 3 Zrotation Yrotation Xrotation
									JOINT LeftHandIndex1
									{
										OFFSET 0.715260 -0.000000 -0.000000
										CHANNELS 3 Zrotation Yrotation Xrotation
										End Site
										{
											OFFSET 0.000000 0.000000 0.000000
										}
									}
								}
								JOINT LThumb
								{
									OFFSET 0.000000 0.000000 0.000000
									CHANNELS 3 Zrotation Yrotation Xrotation
									End Site
									{
										OFFSET 0.000000 0.000000 0.000000
									}
								}
							}
						}
					}
				}
				JOINT RightShoulder
				{
					OFFSET 0.000000 0.000000 0.000000
					CHANNELS 3 Zrotation Yrotation Xrotation
					JOINT RightArm
					{
						OFFSET -3.136600 1.374050 -0.404650
						CHANNELS 3 Zrotation Yrotation Xrotation
						JOINT RightForeArm
						{
							OFFSET -5.241900 -0.000000 -0.000000
							CHANNELS 3 Zrotation Yrotation Xrotation
							JOINT RightHand
							{
								OFFSET -3.444170 -0.000000 -0.000000
								CHANNELS 3 Zrotation Yrotation Xrotation
								JOINT RightFingerBase
								{
									OFFSET 0.000000 0.000000 0.000000
									CHANNELS 3 Zrotation Yrotation Xrotation
									JOINT RightHandIndex1
									{
										OFFSET -0.622530 -0.000000 -0.000000
										CHANNELS 3 Zrotation Yrotation Xrotation
										End Site
										{
											OFFSET 0.000000 0.000000 0.000000
										}
									}
								}
								JOINT RThumb
								{
									OFFSET 0.000000 0.000000 0.000000
									CHANNELS 3 Zrotation Yrotation Xrotation
									End Site
									{
										OFFSET 0.000000 0.000000 0.000000
									}
								}
							}
						}
					}
				}
			}
		}
	}
}
}
MOTION
Frames: 6
Frame Time: 0.008333
-11.497658 16.644363 -2.291135 11.592212 83.750954 13.197229 -4.236017 0.105495 -1.512420 -1.290697 0.336953 -2.668227 -5.024907 0.278486 2.533092 11.344778 -14.519823 -10.619874 -1.701978 -0.095707 -0.769277 0.000000 0.000000 0.000000 -6.134886 22.978991 1.497566 -83.086241 26.235117 -16.835912 -4.211231 -9.750148 -0.018849 -4.605792 6.710380 -0.271099 -0.073235 -0.119076 -0.000000 0.000000 0.000000 0.000000 0.000000 0.000000 0.000000 13.034425 -9.257388 0.344082 44.544270 6.628008 6.271725 2.047416 47.927002 0.009119 0.415545 4.491947 0.014028 0.086430 -0.124234 0.000000 0.000000 0.000000 0.000000 0.000000 0.000000 0.000000 
-11.285408 16.625878 -2.291756 13.738595 83.459046 14.960593 -4.536225 -0.046572 -1.191981 -1.348333 0.214666 -2.617897 -5.068305 0.161070 2.488964 11.499252 -14.537136 -10.632331 -1.741294 -0.098366 -0.775885 0.000000 0.000000 0.000000 -6.005046 22.723280 1.515886 -83.358155 25.953326 -16.503382 -4.195235 -9.919944 -0.018856 -4.764942 6.702933 -0.280400 -0.070885 -0.118623 -0.000000 0.000000 0.000000 0.000000 0.000000 0.000000 0.000000 13.347826 -9.320218 0.330030 45.168286 6.099318 6.151828 2.092720 47.522036 0.009075 0.390752 4.420536 0.012731 0.088230 -0.120246 0.000000 0.000000 0.000000 0.000000 0.000000 0.000000 0.000000 
-11.078025 16.605260 -2.289267 15.684782 83.152710 16.556901 -4.827898 -0.218329 -0.865214 -1.403724 0.071494 -2.568954 -5.114926 0.022690 2.437016 11.637013 -14.527045 -10.639764 -1.786505 -0.101567 -0.781014 0.000000 0.000000 0.000000 -5.881181 22.420342 1.533434 -83.528924 25.571570 -15.916459 -4.173011 -10.143491 -0.018716 -4.885776 6.676515 -0.286599 -0.068505 -0.117746 -0.000000 0.000000 0.000000 0.000000 0.000000 0.000000 0.000000 13.647417 -9.361109 0.314340 45.942580 5.548879 6.000781 2.144011 47.045793 0.009050 0.362752 4.354496 0.011435 0.090222 -0.116289 0.000000 0.000000 0.000000 0.000000 0.000000 0.000000 0.000000 
-10.875236 16.583632 -2.283843 17.379434 82.824734 17.952428 -5.101600 -0.404126 -0.555181 -1.455568 -0.088320 -2.524928 -5.165399 -0.132732 2.380301 11.756471 -14.497210 -10.640779 -1.838146 -0.105408 -0.784051 0.000000 0.000000 0.000000 -5.768353 22.077436 1.546514 -83.580532 25.089423 -15.085001 -4.144214 -10.408173 -0.018390 -4.946529 6.624858 -0.288092 -0.066232 -0.116411 -0.000000 0.000000 0.000000 0.000000 0.000000 0.000000 0.000000 13.937066 -9.388051 0.296576 46.855895 4.980966 5.815032 2.201459 46.491705 0.009052 0.335273 4.298017 0.010140 0.092339 -0.112369 0.000000 0.000000 0.000000 0.000000 0.000000 0.000000 0.000000 
-10.676571 16.562114 -2.275776 18.776105 82.470549 19.112547 -5.346516 -0.598500 -0.280991 -1.502115 -0.260514 -2.487946 -5.219559 -0.301145 2.324348 11.857987 -14.465293 -10.637209 -1.895841 -0.109859 -0.785293 0.000000 0.000000 0.000000 -5.669041 21.710063 1.551180 -83.496811 24.499730 -14.028965 -4.108751 -10.691490 -0.017846 -4.924270 6.542911 -0.283281 -0.064226 -0.114574 -0.000000 0.000000 0.000000 0.000000 0.000000 0.000000 0.000000 14.223370 -9.420041 0.276146 47.888596 4.413730 5.603186 2.265120 45.847526 0.009084 0.304829 4.256105 0.008746 0.094592 -0.108484 0.000000 0.000000 0.000000 0.000000 0.000000 0.000000 0.000000 
-10.481530 16.541743 -2.265465 19.846317 82.087677 20.011921 -5.551539 -0.795567 -0.055352 -1.541673 -0.440140 -2.460640 -5.277955 -0.477832 2.268052 11.938486 -14.428674 -10.624377 -1.960256 -0.115070 -0.783275 0.000000 0.000000 0.000000 -5.588454 21.311124 1.545676 -83.272116 23.820585 -12.790508 -4.067024 -10.993440 -0.017081 -4.803020 6.432956 -0.271666 -0.062615 -0.112250 -0.000000 0.000000 0.000000 0.000000 0.000000 0.000000 0.000000 14.504896 -9.453962 0.253110 49.031235 3.826336 5.341966 2.335187 45.114563 0.009154 0.279895 4.229254 0.007652 0.096860 -0.104634 0.000000 0.000000 0.000000 0.000000 0.000000 0.000000 0.000000 
